<?xml version="1.0" encoding="utf-8" ?><svg xmlns="http://www.w3.org/2000/svg" xmlns:xlink="http://www.w3.org/1999/xlink" width="1024" height="1024" viewBox="0 0 1024 1024"><path fill="#EADCC3" d="M334.761 149.738C335.886 149.477 341.402 149.516 342.965 149.514L583.091 149.593L655.847 149.58C683.066 149.543 711.113 148.466 737.743 154.539C768.117 161.712 795.908 177.167 818.025 199.187C842.1 223.207 858.808 253.608 866.18 286.807C871.838 311.447 870.569 335.733 870.59 360.883L870.614 434.761L870.608 693.041C870.566 719.894 868.514 742.813 859.028 768.011C831.897 840.077 767.978 879.73 692.625 879.491L437.964 879.49L364.488 879.499C337.947 879.498 313.313 880.666 287.181 874.682C257.466 867.76 230.167 852.951 208.162 831.815C173.32 798.849 155.371 751.157 155.23 703.705C155.145 675.178 155.059 646.669 155.061 618.14L155.06 457.384L155.028 367.816C155.029 341.077 153.729 311.422 159.342 285.459C165.936 254.654 180.912 226.27 202.618 203.438C239.523 164.92 282.682 150.795 334.761 149.738Z"/><path fill="#C2724F" d="M360.441 451.213C359.511 412.47 360.72 373.78 359.66 335.094C359.081 314.002 352.564 286.027 332.967 274.635C330.483 273.191 327.035 271.513 325.905 268.763C324.793 265.785 325.181 261.568 329.096 261.276C338.318 259.88 348.058 260.429 357.348 260.467L398.814 260.503L485.193 260.197C535.21 259.911 578.18 258.076 622.986 284.605C681.24 319.096 694.531 397.142 660.937 453.323C640.106 488.159 602.781 506.261 564.761 515.327C596.762 529.92 610.206 548.208 628.036 577.334C634.34 587.632 639.822 596.591 645.337 607.501C616.216 588.094 592.345 576.592 557.444 570.7C547.209 568.973 536.916 567.932 526.75 566.25C521.866 559.325 518.154 552.23 512.18 545.928C500.595 533.941 484.986 524.537 467.995 523.98C442.223 523.135 443.021 543.608 443.077 562.545C425.511 562.443 381.73 558.846 365.549 550.275C362.517 548.459 360.608 545.145 360.183 541.748C354.912 499.555 373.741 499.181 408.079 493.734L442.941 488.245L442.983 499.513C456.225 499.723 469.579 499.963 482.769 499.112C511.144 497.283 541.517 491.342 562.772 471.007C583.852 450.84 593.584 420.683 593.994 391.998C594.408 363.108 585.766 332.699 565.496 311.428C546.472 291.753 517.1 285.918 490.739 285.625C441.317 284.252 442.97 314.217 442.965 353.259L442.945 396.259C442.65 400.126 442.363 404.915 442.718 408.798C443.168 415.534 442.949 422.272 443.006 428.983C443.076 437.345 440.777 440.279 432.215 441.728C408.349 445.77 384.261 446.435 360.441 451.213Z"/><path fill="#4E877F" d="M442.945 396.259C460.001 399.787 486.277 405.912 496.289 421.506C500.014 427.269 501.232 434.3 499.664 440.981C493.198 467.369 442.904 474.814 419.902 478.155C408.54 479.805 397.36 481.915 384.85 483.869C355.64 488.431 314.991 508.719 332.153 544.527C339.135 559.094 363.466 567.376 377.934 570.058C468.547 587.764 577.658 560.681 650.336 631.977C671.659 652.887 686.902 678.852 705.501 702.029C715.197 714.201 727.927 725.196 742.558 730.845C746.12 732.22 752.507 733.455 754.618 736.77C755.379 737.96 755.63 739.406 755.314 740.782C753.91 746.843 743.766 746.729 739.042 747.566C703.385 753.882 677.044 741.45 655.952 712.461C652.744 708.052 647.021 696.364 641.001 697.267C630.927 705.53 656.568 738.977 662.277 746.86C645.09 748.525 618.576 748.927 604.808 737.352C595.9 729.863 589.887 716.772 585.755 706.112C575.594 679.9 563.448 656.553 538.498 641.264C522.093 631.211 503.805 625.405 484.483 621.713C427.25 610.777 295.464 618.566 286.778 539.221C285.313 525.839 291.796 507.641 300.964 497.304C312.652 484.125 326.599 475.567 343.739 470.163C359.058 465.335 373.7 463.881 389.815 461.125C408.745 457.887 475.683 457.454 474.965 429.767C474.874 426.292 470.033 420.237 466.966 417.95C460.293 412.972 450.809 410.776 442.718 408.798C442.363 404.915 442.65 400.126 442.945 396.259Z"/><path fill="#EADCC3" d="M582.699 627.923C597.533 630.985 611.855 645.213 621.074 656.622C625.498 662.098 629.894 667.576 624.976 673.98C624.2 674.016 621.011 674.177 620.697 673.887C614.303 667.981 607.294 657.64 601.329 651.365C595.616 645.354 582.282 637.861 580.346 631.787C580.51 630.007 581.476 629.289 582.699 627.923Z"/><path fill="#EADCC3" d="M514.434 601.307C515.571 601.361 516.705 601.461 517.833 601.606C526.23 602.681 559.385 610.63 564.046 616.592C564.06 618.23 563.175 619.061 562.186 620.436C561.324 620.88 560.081 621.61 559.08 621.249C546.49 616.716 534.389 611.448 521.257 608.573C519.419 608.171 514.558 606.67 513.495 605.199C513.213 603.54 513.732 602.852 514.434 601.307Z"/><path fill="#EADCC3" d="M472.44 596.71C476.525 596.258 484.803 595.475 488.486 597.62C490.036 598.523 489.829 599.198 490.207 600.89C485.256 600.935 476.013 600.468 472.44 596.71Z"/><path fill="#C2724F" d="M360.517 619.35C386.791 624.148 416.387 629.289 442.993 630.569C442.835 655.188 441.937 682.454 449.78 706.009C455.118 722.042 463.317 727.538 477.986 734.594L477.986 746.022L442.75 746.075L325.391 746.018C325.134 742.635 325.117 738.87 325.034 735.448C330.21 732.624 339.213 727.958 343.154 723.817C364.005 701.905 360.533 648.426 360.517 619.35Z"/><path fill="#4E877F" d="M544.902 328.448C544.945 328.46 544.991 328.464 545.031 328.484C545.568 328.751 546.198 328.915 546.356 329.539C547.079 332.403 521.822 387.186 517.737 393.352C516.837 394.709 515.755 396.322 514.112 396.642C511.131 393.62 508.455 378.345 507.472 373.605C505.444 363.374 483.822 368.461 483.496 361.489C486.489 356.272 535.791 332.759 544.902 328.448Z"/></svg>