<?xml version="1.0" encoding="utf-8" ?><svg xmlns="http://www.w3.org/2000/svg" xmlns:xlink="http://www.w3.org/1999/xlink" width="1568" height="896" viewBox="0 0 1568 896"><path fill="#B3553A" transform="scale(1.16667 1.16667)" d="M409.534 283.888C429.618 283.77 458.424 282.112 468.158 304.18C471.256 311.18 471.399 319.135 468.555 326.242C463.648 338.288 454.157 343.324 443.057 348.013C458.896 360.832 461.078 374.843 471.351 391.375C474.271 396.075 483.555 401.076 482.281 404.706C478.805 406.442 458.825 405.627 453.571 405.561C448.117 396.492 442.61 385.33 437.654 375.816C434.352 369.77 429.747 360.52 424.707 355.906C419.422 351.068 415.746 351.589 409.354 351.85C409.457 364.131 408.811 376.021 409.689 388.331C410.307 396.988 419.132 401.083 418.692 404.812C414.497 406.687 384.324 405.782 378.875 404.596C378.351 403.022 385.401 393.473 386.04 390.627C386.202 389.905 387.159 388.53 387.119 386.952C386.829 375.549 388.056 304.603 386.231 299.529L386.087 299.14C384.439 294.599 380.538 289.589 377.89 285.215C380.264 283.676 404.784 283.927 409.534 283.888ZM408.892 343.602C416.754 343.267 424.766 343.186 432.139 340.112C456.242 328.236 449.118 289.474 418.832 291.627C415.811 292.511 412.886 293.308 411.46 296.402C406.398 307.392 408.477 331.114 408.892 343.602Z"/><path fill="#FFFFFF" transform="scale(1.16667 1.16667)" d="M523.117 317.991C547.78 314.262 570.79 331.256 574.485 355.931C578.18 380.605 561.158 403.597 536.485 407.259C511.859 410.914 488.927 393.928 485.239 369.302C481.551 344.675 498.501 321.714 523.117 317.991ZM533.059 400.282C539.939 398.391 545.563 395.189 548.811 388.585C558.587 368.705 556.733 324.57 526.899 324.927C503.576 331.899 503.368 362.659 508.7 382.082C511.968 393.987 520.785 400.421 533.059 400.282Z"/><path fill="#FFFFFF" transform="scale(1.16667 1.16667)" d="M781.391 317.952C782.065 317.849 782.686 317.84 783.3 317.793C831.193 314.073 818.739 356.61 820.204 387.544C820.615 396.228 828.49 395.228 832.39 398.892C831.536 402.518 828.263 404.959 824.752 405.574C813.233 407.594 804.896 404.965 801.939 393.325C789.349 408.008 770.594 412.607 754.875 399.845C752.108 396.982 749.759 393.481 749.019 389.536C743.682 361.102 783.252 356.537 801.873 352.839C801.554 348.949 801.193 343.978 800.409 340.312C799.391 335.553 796.931 329.213 792.393 326.796C772.758 316.337 765.288 344.395 759.671 345.669C756.957 342.621 755.78 331.875 755.056 327.297C763.376 321.721 771.558 319.089 781.391 317.952ZM773.764 393.881C794.418 402.633 803.041 387.356 801.866 368.435C801.705 365.836 802.14 363.116 801.07 360.676L800.248 360.452C789.425 362.973 765.096 368.142 768.253 384.4C768.914 387.801 771.362 391.393 773.764 393.881Z"/><path fill="#FFFFFF" transform="scale(1.16667 1.16667)" d="M595.043 319.32C599.569 319.2 609.163 317.508 609.54 323.685C611.221 340.707 607.195 360.991 609.632 377.739C614.048 408.08 650.529 395.191 646.964 367.311C645.676 357.236 648.156 341.733 645.519 331.413C645.156 329.989 639.087 323.586 637.77 321.466L638.3 320.552C642.822 318.887 659.837 319.47 665.462 319.499C665.618 331.388 665.483 343.536 665.474 355.446L665.37 364.07C665.253 373.181 664.06 386.59 668.391 394.573C669.141 395.956 672.835 399.73 674.112 401.041C669.211 403.683 657.04 408.123 651.814 404.63C647.754 401.917 647.448 395.399 646.787 390.941C637.5 404.149 625.332 409.843 609.187 405.78C580.589 398.583 593.664 354.215 589.899 333.353C589.479 331.028 583.889 323.625 582.326 321.014C583.977 319.309 592.32 319.423 595.043 319.32Z"/><path fill="#FFFFFF" transform="scale(1.16667 1.16667)" d="M990.851 318.002C1002.17 318.148 1006.92 319.05 1017.59 322.918C1017.67 327.601 1018.37 339.22 1016.27 342.763C1011.81 343.5 1004.6 324.921 993.95 324.926C988.266 324.929 975.99 326.551 976.049 334.81C976.18 353.375 1008.51 352.133 1017 364.902C1036.08 393.601 1009.94 409.025 982.183 407.222C974.195 406.295 966.377 404.243 958.964 401.125C957.941 391.009 957.277 386.397 958.692 376.504C964.854 381.666 966.953 388.808 972.431 394.261C979.147 400.945 996.541 402.287 1003.32 395.112C1014.94 383.422 997.042 372.73 986.465 369.17C967.724 362.862 948.666 348.682 964.645 327.765C969.969 320.796 982.078 318.482 990.851 318.002Z"/><path fill="#FFFFFF" transform="scale(1.16667 1.16667)" d="M707.058 295.32C708.995 295.329 709.681 295.119 711.137 296.208C713.905 300.999 712.552 314.109 712.301 320.37L739.513 320.333L739.442 328.508C730.469 328.475 721.495 328.527 712.523 328.665C712.232 343.782 710.558 374.29 714.136 388.497C718.109 404.273 735.012 390.391 740.699 392.897C740.87 395.07 740.526 394.905 739.391 397.023C739.135 397.302 738.875 397.579 738.613 397.852C728.97 407.878 710.816 411.17 700.051 400.939C691.755 393.056 693.079 376.461 692.946 365.668C692.796 353.591 693.004 341.043 693.058 328.83C688.917 328.918 684.417 329.569 681.159 327.045C679.505 321.414 693.014 317.167 697.593 311.194C702.75 304.467 703.352 302.914 707.058 295.32Z"/><path fill="#FFFFFF" transform="scale(1.16667 1.16667)" d="M866.892 338.997C870.541 331.941 874.401 325.585 881.311 321.185C886.496 317.883 899.337 316.032 903.147 321.77C905.044 324.628 900.735 337.011 899.752 340.22C864.767 321.092 867.189 359.428 868.014 382.524C867.978 388.231 868.373 390.994 869.737 396.355C872.992 398.63 876.605 400.392 877.388 404.12C874.662 406.81 844.554 405.494 839.488 404.868C841.496 402.322 843.798 400.269 846.149 398.049C850.686 381.851 848.833 355.702 848.326 338.266C848.156 332.423 843.391 329.114 839.054 325.83C847.694 322.684 854.723 320.216 863.754 318.556C864.374 318.491 865.084 318.648 865.725 318.739C868.247 322.239 867.189 334.358 866.892 338.997Z"/><path fill="#FFFFFF" transform="scale(1.16667 1.16667)" d="M934.235 318.48C935.478 318.508 935.965 318.666 936.969 319.413C940.799 322.261 937.577 382.416 938.868 391.913C939.528 396.771 945.696 400.086 945.974 404.658C943.492 406.25 923.708 405.579 919.57 405.547C916.427 405.558 913.062 405.318 909.905 405.152C912.855 401.139 915.625 398.039 918.554 393.753C919.64 380.511 919.928 346.536 917.937 333.277C916.14 330.992 912.982 327.917 910.884 325.748C918.375 322.099 926.151 320.405 934.235 318.48Z"/><path fill="#FFFFFF" transform="scale(1.16667 1.16667)" d="M432.577 451.213C438.123 449.776 444.013 451.441 447.987 455.569C451.96 459.697 453.401 465.647 451.755 471.136C450.11 476.625 445.633 480.801 440.044 482.06C431.592 483.965 423.174 478.736 421.135 470.312C419.095 461.889 424.189 453.387 432.577 451.213ZM438.814 476.936C444.471 475.711 448.047 470.111 446.78 464.462C445.513 458.813 439.888 455.278 434.25 456.587C428.671 457.882 425.182 463.437 426.435 469.027C427.689 474.617 433.216 478.148 438.814 476.936Z"/><path fill="#FFFFFF" transform="scale(1.16667 1.16667)" d="M679.072 451.23C687.565 449.363 695.972 454.7 697.899 463.181C699.825 471.662 694.549 480.11 686.084 482.097C677.533 484.104 668.984 478.762 667.038 470.195C665.092 461.628 670.494 453.115 679.072 451.23ZM684.23 477.038C689.928 476.123 693.785 470.735 692.818 465.044C691.85 459.354 686.429 455.544 680.749 456.564C675.141 457.571 671.392 462.909 672.347 468.527C673.303 474.144 678.605 477.943 684.23 477.038Z"/><path fill="#FFFFFF" transform="scale(1.16667 1.16667)" d="M647.369 471.341C649.109 467.445 652.301 450.72 657.468 451.933C659.879 456.809 651.64 477.811 647.698 481.752C643.617 485.833 636.787 462.987 636.017 460.866C634.493 465.214 630.915 479.975 626.97 481.783C621.233 481.077 612.861 456.652 613.318 451.842C615.287 451.481 615.536 451.52 617.479 452.019C620.394 454.393 624.776 469.678 626.191 474.114C627.732 468.73 630.76 452.684 637.019 453.005C641.315 455.618 643.474 464.343 645.022 469.27C645.468 470.705 645.803 472.833 646.794 473.508L647.369 471.341Z"/><path fill="#FFFFFF" transform="scale(1.16667 1.16667)" d="M385.935 451.605C391.747 451.462 406.179 450.317 409.866 456.196C413.841 462.533 410.828 467.645 405.269 471.622C406.975 473.813 410.822 478.028 410.362 480.616C410.138 481.88 409.36 482.056 408.09 483.061C404.107 480.224 402.11 476.716 399.591 472.666C397.593 472.619 394.476 472.546 392.518 472.809C391.117 472.997 392.637 478.834 390.203 481.82C388.259 482.065 388.991 482.107 386.946 480.708C385.241 477.691 385.913 456.751 385.935 451.605ZM404.324 466.671C407.671 455.629 400.142 456.288 391.728 456.395L391.683 467.954C395.111 467.991 401.053 467.789 404.324 466.671Z"/><path fill="#FFFFFF" transform="scale(1.16667 1.16667)" d="M709.446 451.627C717.186 451.49 726.631 450.537 732.747 456.29C738.269 461.485 733.203 467.861 728.883 471.596C731.103 474.78 734.637 477.757 732.997 481.493L730.431 482.301C726.989 479.752 725.27 476.441 723.153 472.83C721.241 472.806 717.159 472.542 715.623 473.214C715.585 476.743 716.42 479.746 713.302 481.63C711.003 481.441 711.839 481.779 710.083 480.441C708.784 477.69 709.424 456.038 709.446 451.627ZM715.255 468.099C719.067 468.115 723.912 468.266 727.36 466.576C730.722 455.871 723.57 456.468 715.406 456.491L715.255 468.099Z"/><path fill="#327A7E" transform="scale(1.16667 1.16667)" d="M945.4 272.362L946.611 272.864C947.765 277.821 932.621 305.947 929.356 312.188C928.045 307.329 927.001 302.557 925.91 297.646C924.249 292.197 915.228 292.211 910.03 290.9C917.914 284.175 935.333 276.955 945.4 272.362Z"/><path fill="#FFFFFF" transform="scale(1.16667 1.16667)" d="M954.78 451.146C963.545 452.981 970.769 464.93 976.006 472.104C975.766 466.818 974.282 454.949 979.266 452.089L980.412 452.603C982.941 456.943 981.86 475.498 981.724 481.607C973.782 482.261 965.064 467.483 960.585 461.342C960.706 466.33 961.247 475.68 959.314 480.384C958.957 481.253 958.369 481.15 957.327 481.401L956.031 480.231C953.748 474.677 954.698 457.92 954.78 451.146Z"/><path fill="#FFFFFF" transform="scale(1.16667 1.16667)" d="M871.761 451.512C873.863 451.472 874.322 451.334 876.214 452.093C880.837 456.065 888.185 474.431 889.752 480.761L889.068 481.574C883.594 482.106 884.471 475.977 878.227 475.124C874.652 475.165 870.952 474.985 867.37 474.863C866.404 477.204 865.833 478.261 864.56 480.443C862.59 481.655 863.475 481.413 861.214 481.415L860.454 480.1C860.476 474.201 868.902 457.605 871.761 451.512ZM875.627 470.581L878.154 469.706C879.482 466.153 876.463 461.19 874.187 458.528C872.874 461.175 870.475 465.189 870.56 467.955C871.89 470.73 872.616 470.258 875.627 470.581Z"/><path fill="#FFFFFF" transform="scale(1.16667 1.16667)" d="M899.98 451.339C902.031 451.413 902.418 451.375 904.218 452.322C907.114 456.273 906.06 461.326 905.806 466.382C908.743 463.143 919.339 450.56 924.068 452.327C923.556 456.302 917.389 461.799 914.49 464.748L921.202 473.419C923.059 475.715 926.698 479.287 925.555 482.201C919.836 481.918 913.677 473.087 910.679 468.952L905.653 474.102C905.675 477.442 906.005 480.576 902.833 482.614L902.131 482.246C898.15 475.903 899.54 458.958 899.98 451.339Z"/><path fill="#FFFFFF" transform="scale(1.16667 1.16667)" d="M776.29 451.284C779.449 451.473 779.735 451.327 781.685 453.183C782.971 455.905 782.431 460.709 782.325 463.897C787.331 464.186 792.308 464.035 797.322 463.959C797.248 460.701 796.744 454.547 798.305 451.972C799.976 451.516 800.122 451.668 801.838 452.264C804.056 457.027 802.844 475.716 802.545 482.028C800.508 481.937 799.902 482.041 798.304 480.836C796.447 477.719 797.156 472.836 797.298 469.009C792.583 468.746 787.038 468.805 782.251 468.744C782.32 472.282 782.957 478.804 780.779 481.434C778.556 481.56 779.382 481.842 777.697 480.372C775.352 475.19 776.359 458.239 776.29 451.284Z"/><path fill="#FFFFFF" transform="scale(1.16667 1.16667)" d="M533.383 451.675C538.797 451.613 551.74 450.573 555.637 453.271C555.431 457.725 537.272 454.043 538.46 460.994C541.147 464.401 549.196 464.491 554.109 465.516L553.861 467.248C553.502 467.385 553.143 467.522 552.784 467.659L552.215 467.844C548.309 469.152 543.005 468.76 538.762 468.722L538.759 477.009C541.121 476.872 543.485 476.763 545.85 476.683C549.525 476.575 553.154 476.31 555.828 478.835C555.834 480.754 556.155 479.971 555.02 481.327C550.616 482.152 538.36 481.767 533.198 481.722C533.047 471.937 533.297 461.495 533.383 451.675Z"/><path fill="#FFFFFF" transform="scale(1.16667 1.16667)" d="M1003.99 451.714C1009.52 451.359 1017.14 450.204 1019.64 456.37C1017.94 460.063 1005.95 454.815 1001.32 458.797C992.422 466.447 1004.3 483.349 1014.22 475.584C1015.57 473.619 1015.33 470.055 1015.38 467.553L1016.01 467C1018.34 466.71 1017.45 466.503 1019.38 467.714C1020.39 469.621 1021.84 473.754 1020.88 475.664C1013.54 490.301 986.658 478.193 993.389 461.677C995.548 456.38 998.705 454.115 1003.99 451.714Z"/><path fill="#FFFFFF" transform="scale(1.16667 1.16667)" d="M462.881 451.443C463.612 451.433 466.023 451.363 466.604 451.706C472.477 455.181 464.646 474.735 472.288 476.632C491.98 481.521 479.655 453.617 487.028 450.909C489.748 452.49 489.538 454.188 489.784 456.894C489.978 463.655 491.085 473.567 485.926 478.604C481.26 483.159 470.39 483.835 466.276 478.429C461.252 471.828 462.568 459.474 462.881 451.443Z"/><path fill="#FFFFFF" transform="scale(1.16667 1.16667)" d="M574.395 451.134C577.912 450.961 584.452 451.43 586.757 454.403L586.579 455.765C581.163 461.002 576.087 452.745 571.529 458.378C573.094 462.387 579.121 464.122 582.807 466.407C593.992 473.344 588.612 480.186 577.747 481.953C573.453 481.74 567.414 481.5 564.993 477.476C566.353 472.201 576.807 479.068 581.995 475.306C581.584 470.39 547.824 459.266 574.395 451.134Z"/><path fill="#FFFFFF" transform="scale(1.16667 1.16667)" d="M741.012 451.613C745.73 451.525 764.423 450.491 766.979 452.772C767.168 455.042 767.471 454.484 766.441 455.993C764.072 456.997 760.153 456.733 757.441 456.729L757.421 472.59C757.518 475.111 757.955 478.753 756.619 480.761C754.509 481.818 755.462 481.615 752.817 481.229C750.417 478.142 751.404 461.943 751.476 456.893C748.741 456.925 745.755 457.158 743.216 456.253C741.128 454.33 741.735 454.815 741.012 451.613Z"/><path fill="#FFFFFF" transform="scale(1.16667 1.16667)" d="M828.368 451.656C835.201 451.46 849.428 450.309 854.812 453.406L854.911 454.303C852.246 457.031 848.064 456.746 844.558 456.746L844.567 472.123C844.637 475.642 845.513 479.242 842.33 481.213C839.914 481.171 840.536 481.546 839.073 480.26C838.037 474.811 838.572 463.05 838.652 456.909C835.949 456.925 833.394 457.133 830.844 456.268C828.712 454.35 829.305 454.734 828.368 451.656Z"/><path fill="#FFFFFF" transform="scale(1.16667 1.16667)" d="M497.484 451.632C502.223 451.548 522.625 450.096 524.599 454.007C521.347 457.061 518.17 456.746 513.983 456.697L513.967 473.436C514.072 476.042 514.278 479.207 512.822 481.37C510.741 482.053 511.653 482.02 509.09 480.912C507.268 476.438 508.109 462.251 508.233 456.742C502.022 456.796 499.36 458.128 497.484 451.632Z"/><path fill="#FFFFFF" transform="scale(1.16667 1.16667)" d="M936.39 451.524C938.301 451.561 939.34 451.37 940.888 452.44C942.696 457.148 941.781 475.881 941.669 481.803C939.491 481.526 939.005 481.467 936.98 480.649C934.72 476.564 936.091 457.085 936.39 451.524Z"/><path fill="#FDFDFD" fill-opacity="0.011764706" transform="scale(1.16667 1.16667)" d="M645.022 469.27L646.303 467.014L647.143 467.001C647.202 468.448 647.277 469.895 647.369 471.341L646.794 473.508C645.803 472.833 645.468 470.705 645.022 469.27Z"/></svg>