<?xml version="1.0" encoding="utf-8" ?><svg xmlns="http://www.w3.org/2000/svg" xmlns:xlink="http://www.w3.org/1999/xlink" width="860" height="210" viewBox="370 300 860 210"><path fill="#B3553A" transform="scale(1.16667 1.16667)" d="M409.534 283.888C429.618 283.77 458.424 282.112 468.158 304.18C471.256 311.18 471.399 319.135 468.555 326.242C463.648 338.288 454.157 343.324 443.057 348.013C458.896 360.832 461.078 374.843 471.351 391.375C474.271 396.075 483.555 401.076 482.281 404.706C478.805 406.442 458.825 405.627 453.571 405.561C448.117 396.492 442.61 385.33 437.654 375.816C434.352 369.77 429.747 360.52 424.707 355.906C419.422 351.068 415.746 351.589 409.354 351.85C409.457 364.131 408.811 376.021 409.689 388.331C410.307 396.988 419.132 401.083 418.692 404.812C414.497 406.687 384.324 405.782 378.875 404.596C378.351 403.022 385.401 393.473 386.04 390.627C386.202 389.905 387.159 388.53 387.119 386.952C386.829 375.549 388.056 304.603 386.231 299.529L386.087 299.14C384.439 294.599 380.538 289.589 377.89 285.215C380.264 283.676 404.784 283.927 409.534 283.888ZM408.892 343.602C416.754 343.267 424.766 343.186 432.139 340.112C456.242 328.236 449.118 289.474 418.832 291.627C415.811 292.511 412.886 293.308 411.46 296.402C406.398 307.392 408.477 331.114 408.892 343.602Z"/><path fill="#2D343B" transform="scale(1.16667 1.16667)" d="M523.117 317.991C547.78 314.262 570.79 331.256 574.485 355.931C578.18 380.605 561.158 403.597 536.485 407.259C511.859 410.914 488.927 393.928 485.239 369.302C481.551 344.675 498.501 321.714 523.117 317.991ZM533.059 400.282C539.939 398.391 545.563 395.189 548.811 388.585C558.587 368.705 556.733 324.57 526.899 324.927C503.576 331.899 503.368 362.659 508.7 382.082C511.968 393.987 520.785 400.421 533.059 400.282Z"/><path fill="#2D343B" transform="scale(1.16667 1.16667)" d="M781.391 317.952C782.065 317.849 782.686 317.84 783.3 317.793C831.193 314.073 818.739 356.61 820.204 387.544C820.615 396.228 828.49 395.228 832.39 398.892C831.536 402.518 828.263 404.959 824.752 405.574C813.233 407.594 804.896 404.965 801.939 393.325C789.349 408.008 770.594 412.607 754.875 399.845C752.108 396.982 749.759 393.481 749.019 389.536C743.682 361.102 783.252 356.537 801.873 352.839C801.554 348.949 801.193 343.978 800.409 340.312C799.391 335.553 796.931 329.213 792.393 326.796C772.758 316.337 765.288 344.395 759.671 345.669C756.957 342.621 755.78 331.875 755.056 327.297C763.376 321.721 771.558 319.089 781.391 317.952ZM773.764 393.881C794.418 402.633 803.041 387.356 801.866 368.435C801.705 365.836 802.14 363.116 801.07 360.676L800.248 360.452C789.425 362.973 765.096 368.142 768.253 384.4C768.914 387.801 771.362 391.393 773.764 393.881Z"/><path fill="#2D343B" transform="scale(1.16667 1.16667)" d="M595.043 319.32C599.569 319.2 609.163 317.508 609.54 323.685C611.221 340.707 607.195 360.991 609.632 377.739C614.048 408.08 650.529 395.191 646.964 367.311C645.676 357.236 648.156 341.733 645.519 331.413C645.156 329.989 639.087 323.586 637.77 321.466L638.3 320.552C642.822 318.887 659.837 319.47 665.462 319.499C665.618 331.388 665.483 343.536 665.474 355.446L665.37 364.07C665.253 373.181 664.06 386.59 668.391 394.573C669.141 395.956 672.835 399.73 674.112 401.041C669.211 403.683 657.04 408.123 651.814 404.63C647.754 401.917 647.448 395.399 646.787 390.941C637.5 404.149 625.332 409.843 609.187 405.78C580.589 398.583 593.664 354.215 589.899 333.353C589.479 331.028 583.889 323.625 582.326 321.014C583.977 319.309 592.32 319.423 595.043 319.32Z"/><path fill="#2D343B" transform="scale(1.16667 1.16667)" d="M990.851 318.002C1002.17 318.148 1006.92 319.05 1017.59 322.918C1017.67 327.601 1018.37 339.22 1016.27 342.763C1011.81 343.5 1004.6 324.921 993.95 324.926C988.266 324.929 975.99 326.551 976.049 334.81C976.18 353.375 1008.51 352.133 1017 364.902C1036.08 393.601 1009.94 409.025 982.183 407.222C974.195 406.295 966.377 404.243 958.964 401.125C957.941 391.009 957.277 386.397 958.692 376.504C964.854 381.666 966.953 388.808 972.431 394.261C979.147 400.945 996.541 402.287 1003.32 395.112C1014.94 383.422 997.042 372.73 986.465 369.17C967.724 362.862 948.666 348.682 964.645 327.765C969.969 320.796 982.078 318.482 990.851 318.002Z"/><path fill="#2D343B" transform="scale(1.16667 1.16667)" d="M707.058 295.32C708.995 295.329 709.681 295.119 711.137 296.208C713.905 300.999 712.552 314.109 712.301 320.37L739.513 320.333L739.442 328.508C730.469 328.475 721.495 328.527 712.523 328.665C712.232 343.782 710.558 374.29 714.136 388.497C718.109 404.273 735.012 390.391 740.699 392.897C740.87 395.07 740.526 394.905 739.391 397.023C739.135 397.302 738.875 397.579 738.613 397.852C728.97 407.878 710.816 411.17 700.051 400.939C691.755 393.056 693.079 376.461 692.946 365.668C692.796 353.591 693.004 341.043 693.058 328.83C688.917 328.918 684.417 329.569 681.159 327.045C679.505 321.414 693.014 317.167 697.593 311.194C702.75 304.467 703.352 302.914 707.058 295.32Z"/><path fill="#2D343B" transform="scale(1.16667 1.16667)" d="M866.892 338.997C870.541 331.941 874.401 325.585 881.311 321.185C886.496 317.883 899.337 316.032 903.147 321.77C905.044 324.628 900.735 337.011 899.752 340.22C864.767 321.092 867.189 359.428 868.014 382.524C867.978 388.231 868.373 390.994 869.737 396.355C872.992 398.63 876.605 400.392 877.388 404.12C874.662 406.81 844.554 405.494 839.488 404.868C841.496 402.322 843.798 400.269 846.149 398.049C850.686 381.851 848.833 355.702 848.326 338.266C848.156 332.423 843.391 329.114 839.054 325.83C847.694 322.684 854.723 320.216 863.754 318.556C864.374 318.491 865.084 318.648 865.725 318.739C868.247 322.239 867.189 334.358 866.892 338.997Z"/><path fill="#2D343B" transform="scale(1.16667 1.16667)" d="M934.235 318.48C935.478 318.508 935.965 318.666 936.969 319.413C940.799 322.261 937.577 382.416 938.868 391.913C939.528 396.771 945.696 400.086 945.974 404.658C943.492 406.25 923.708 405.579 919.57 405.547C916.427 405.558 913.062 405.318 909.905 405.152C912.855 401.139 915.625 398.039 918.554 393.753C919.64 380.511 919.928 346.536 917.937 333.277C916.14 330.992 912.982 327.917 910.884 325.748C918.375 322.099 926.151 320.405 934.235 318.48Z"/><path fill="#327A7E" transform="scale(1.16667 1.16667)" d="M945.4 272.362L946.611 272.864C947.765 277.821 932.621 305.947 929.356 312.188C928.045 307.329 927.001 302.557 925.91 297.646C924.249 292.197 915.228 292.211 910.03 290.9C917.914 284.175 935.333 276.955 945.4 272.362Z"/></svg>